<svg xmlns="http://www.w3.org/2000/svg" width="116" height="138" fill="none" viewBox="0 0 116 138"><path fill="#212529" d="M13.75 108.903a.353.353 0 0 1-.355-.355v-5.963a.356.356 0 0 1 .606-.251.36.36 0 0 1 .103.251v5.963a.353.353 0 0 1-.354.355M29.332 57.97c-8.235 2.928-9.974-12.707-2.36-10.17 7.613 2.538 4.383-11.127 4.383-11.127C22.695 7.089 49.297 1.445 49.297 1.445s2.822-1.74 6.726 3.656c0 0 8.288-3.567 14.056 7.081s-.87 27.188 2.147 32.033c3.266 5.2 6.39-.443 8.324 4.295 1.633 3.993-6.336 8.519-8.324 8.572z"/><path fill="#212529" d="M27.326 58.697c-2.076 0-3.372-1.243-4.046-2.13-1.775-2.36-2.059-6.034-.621-8.022.958-1.33 2.52-1.721 4.419-1.082 1.42.461 2.52.372 3.265-.32 2.485-2.272.728-10.08.657-10.382-2.751-9.459-2.236-17.48 1.561-23.834C37.974 3.876 48.34 1.303 49.173 1.107c.443-.23 3.265-1.42 6.974 3.567 1.546-.5 3.188-.628 4.792-.372 2.644.408 6.407 2.076 9.46 7.702 3.407 6.3 2.537 14.641 1.845 21.332-.497 4.703-.905 8.767.284 10.684 1.562 2.502 3.035 2.325 4.437 2.147 1.402-.177 2.875-.337 3.922 2.218.461 1.136.266 2.379-.586 3.692-1.863 2.857-6.478 5.324-8.057 5.36l-42.842.887a6.3 6.3 0 0 1-2.076.373M25.409 47.87a2.5 2.5 0 0 0-2.165 1.082c-1.242 1.74-.958 5.094.604 7.188.763.994 2.467 2.538 5.377 1.49h.106l42.895-.887c1.242-.035 5.661-2.236 7.472-5.022.727-1.118.905-2.13.532-3.053-.834-2.04-1.828-1.934-3.177-1.774s-3.336.39-5.129-2.485c-1.33-2.112-.887-6.282-.39-11.127.692-6.602 1.544-14.82-1.757-20.924-2.307-4.242-5.395-6.78-8.944-7.347-2.663-.409-4.65.426-4.668.443l-.266.107-.16-.23c-3.673-5.077-6.23-3.586-6.247-3.568l-.053.035h-.053c-.107.036-10.773 2.396-16.221 11.518-3.692 6.176-4.188 14.02-1.473 23.284.089.338 1.97 8.484-.87 11.075-.94.87-2.29 1.011-3.975.461a4.4 4.4 0 0 0-1.438-.266"/><path fill="#212529" d="M66.316 21.677h-.106c-9.708-2.769-16.7-11.11-16.771-11.199a.358.358 0 1 1 .55-.461c.071.089 6.921 8.27 16.416 10.968a.355.355 0 0 1 .123.626.34.34 0 0 1-.212.066"/><path fill="#212529" d="M62.306 32.643h-.089a.354.354 0 0 1-.32-.39.34.34 0 0 1 .374-.32c.124 0 3.088.178 3.62-4.667.302-2.662-.444-3.461-1.154-4.224s-1.384-1.473-1.189-3.479a.356.356 0 1 1 .71.071c-.16 1.686.373 2.254.994 2.929s1.668 1.792 1.349 4.791c-.568 5.04-3.71 5.289-4.295 5.289M58.046 22.12h-.053l-4.029-.354a.46.46 0 0 1-.36-.662.43.43 0 0 1 .431-.226l4.047.355a.445.445 0 0 1 .408.48.48.48 0 0 1-.444.408"/><path fill="#adb5bd" d="M73.948 108.548c-1.047-1.828-1.633-2.573-1.402-4.667.337-3.213.851-8.342 1.1-13.169 2.431 4.827 8.252 13.044 18.066 7.898 2.006-1.047-.23-33.116-27.241-43.73l-2.964 4.207a11.6 11.6 0 0 1-1.668 2.059C48.587 71.794 39.607 54.88 39.607 54.88c-27.561 8.252-25.112 31.2-27.632 43.729-1.313 6.548 6.921 3.833 14.854 3.265 3.425-.231 4.046-5.608 4.1-9.832a.23.23 0 1 1 .461-.018l.94 9.477a15.04 15.04 0 0 1-1.455 8.058"/><path fill="#f8f9fa" d="M39.607 54.88s5.182 2.52 7.667-12.387l7.79-.515s.48 14.393 9.407 12.903c0 0-11.252 22.645-24.864 0M70.611 20.825a.354.354 0 0 1-.355-.32c-1.1-10.63-9.974-13.345-10.062-13.363a.355.355 0 0 1-.231-.444.34.34 0 0 1 .426-.248c.106.035 2.396.727 4.862 2.786s5.112 5.395 5.715 11.199a.356.356 0 0 1-.32.39zM70.753 28.563a.355.355 0 0 1-.355-.355v-4.88a.355.355 0 0 1 .71 0v4.88a.355.355 0 0 1-.355.355M33.2 18.871h-.089a.37.37 0 0 1-.248-.444c1.739-5.98 6.158-9.228 6.336-9.37a.354.354 0 0 1 .496.089.357.357 0 0 1-.07.497c-.054.017-4.42 3.247-6.088 8.98a.32.32 0 0 1-.337.248M32.384 24.746a.37.37 0 0 1-.355-.284 6.6 6.6 0 0 1 0-3 .356.356 0 0 1 .426-.265.336.336 0 0 1 .266.426 6.2 6.2 0 0 0 0 2.68.337.337 0 0 1-.266.425zM101.811 75.254c5.004 34.518-8.66 36.825-17.197 30.205-4.17-3.23-7.046-8.163-7.791-9.956a.584.584 0 0 1 .355-.798c1.739-.586 6.797-2.467 8.696-5.111"/><path fill="#212529" d="M92.245 108.778c-2.538 0-5.271-1.029-7.862-3.035-4.42-3.442-7.259-8.571-7.898-10.098a1.03 1.03 0 0 1 .018-.763.98.98 0 0 1 .55-.514c1.544-.515 6.673-2.396 8.519-4.987a.355.355 0 0 1 .497-.071.36.36 0 0 1 .145.37.4.4 0 0 1-.057.127c-1.916 2.68-6.85 4.56-8.873 5.235a.36.36 0 0 0-.142.142.3.3 0 0 0 0 .177c.78 1.864 3.691 6.727 7.684 9.815s8.146 3.709 11.358 1.845c3.213-1.863 8.608-8.749 5.271-31.731a.336.336 0 0 1 .302-.39.35.35 0 0 1 .268.064.35.35 0 0 1 .14.237c1.349 9.335 1.438 16.93.231 22.556-1.047 4.898-3.017 8.217-5.857 9.885a8.7 8.7 0 0 1-4.294 1.136"/><path fill="#212529" d="M115.547 108.424H.475v.71h115.072z"/><path fill="#f8f9fa" d="M101.171 76.372s5.733-12.228 0-12.618c0 0 1.899-5.821-3.265-5.076 0 0-.053-8.234-8.164-6.193 0 0-.816 4.507-4.88 1.898 0 0-3.62-5.501-4.455-.266-.16.959 4.473 4.739 5.289 6.247 2.165 4.029 3.674 11.731 3.159 19.77-.213 3.443-.497 7.81-.426 11.465z"/><path fill="#f8f9fa" d="M90.896 52.023c2.893-1.26 1.438 5.785-1.597 8.075a1.33 1.33 0 0 1-1.118.23c-.728-.195-1.935-1.58-1.172-3.709"/><path fill="#212529" d="M88.5 60.72a1.5 1.5 0 0 1-.408-.053c-.479-.125-.994-.586-1.313-1.19-.32-.603-.497-1.898-.107-2.963a.355.355 0 1 1 .657.23c-.39 1.119-.177 1.935.071 2.414s.621.763.87.816a.98.98 0 0 0 .816-.16c2.272-1.72 3.55-6.122 2.822-7.346-.071-.107-.23-.39-.87-.125a.355.355 0 0 1-.284-.639c1.1-.479 1.615.125 1.775.409.94 1.614-.55 6.406-3.017 8.27a1.65 1.65 0 0 1-1.012.337"/><path fill="#f8f9fa" d="M95.049 55.378c4.26-1.544.639 8.217-3.301 9.282 0 0-1.988.213-1.934-2.094"/><path fill="#212529" d="M91.624 65.014a2.18 2.18 0 0 1-1.491-.532c-.462-.426-.692-1.083-.674-1.917a.355.355 0 0 1 .354-.355h.018a.373.373 0 0 1 .337.373c-.017.62.142 1.082.444 1.366.297.25.678.376 1.065.355 2.058-.586 4.153-3.833 4.774-6.424.248-1.047.195-1.864-.142-2.166s-.781-.142-1.154 0a.356.356 0 1 1-.23-.674c.798-.284 1.42-.23 1.863.142.444.373.674 1.49.355 2.857-.586 2.485-2.75 6.265-5.306 6.957h-.213z"/><path fill="#f8f9fa" d="M99.006 59.55c4.028-.782 1.242 8.784-4.774 9.228 0 0-2.662.088-2.36-2.343"/><path fill="#212529" d="M94.215 69.131c-.266 0-1.473-.053-2.183-.834-.444-.48-.603-1.118-.515-1.899a.356.356 0 0 1 .39-.32.39.39 0 0 1 .32.409q-.106.852.32 1.33c.568.622 1.668.604 1.668.604 2.857-.213 4.88-2.626 5.75-4.632.656-1.526.763-2.964.266-3.602-.248-.302-.639-.39-1.171-.284a.355.355 0 0 1-.351-.554.37.37 0 0 1 .227-.156c.993-.195 1.561.195 1.845.55.692.852.621 2.52-.16 4.33-.993 2.29-3.194 4.827-6.37 5.058z"/><path fill="#f8f9fa" d="m89.228 53.94-9.016-11.961-3.638 3.762 10.187 10.648a.69.69 0 0 0 .657.178c.479-.142 1.313-.568 1.899-1.97a.68.68 0 0 0-.09-.657"/><path fill="#212529" d="M87.24 56.939a.98.98 0 0 1-.728-.32L76.094 45.74l4.153-4.312 9.264 12.299a1.01 1.01 0 0 1 .142.993c-.657 1.58-1.633 2.041-2.147 2.183a.7.7 0 0 1-.267.036M77.07 45.74l9.956 10.4a.34.34 0 0 0 .284.089c.409-.107 1.136-.48 1.686-1.775a.3.3 0 0 0-.053-.302L80.176 42.51z"/><path fill="#f8f9fa" d="M37.14 24.09c-1.898 1.224-2.502 1.951-2.254 4.205.16 1.313 1.19 3.603 2.254 4.384 1.065.78 1.846.763 2.272 1.171 1.012.976 1.065 2.023 1.19 3.088.319 2.662 2.785 4.33 5.093 5.715 3.673 2.2 8.802 1.597 11.872-1.385 1.74-1.686 3.248-3.744 3.887-6.087.78-2.893 3.691-5.111 3.762-5.218.781-1.366 1.136-2.449.959-4.028-.231-2.059-3.142-3.833-4.81-5.058-3.869-2.875-6.833-5.892-10.453-9.46a1.296 1.296 0 0 0-1.952.178c-2.573 3.532-2.822 6.407-9.548 10.311"/><path fill="#212529" d="M50.539 44.25h-.107c-5.679-.052-8.465-3.495-9.814-6.37a17.8 17.8 0 0 1-1.561-6.265.337.337 0 0 1 .337-.355h.018a.337.337 0 0 1 .355.337 17.5 17.5 0 0 0 1.508 5.999c1.828 3.904 4.916 5.91 9.157 5.945h.125c4.508 0 7.79-2.343 9.743-6.975 1.473-3.514 1.58-7.08 1.597-7.116a.355.355 0 1 1 .692.018 22.5 22.5 0 0 1-1.633 7.382c-2.04 4.845-5.643 7.4-10.417 7.4"/><path fill="#212529" d="M39.181 33.851a4.3 4.3 0 0 1-2.626-.905c-1.1-.887-1.775-2.307-1.988-4.223-.337-3.035.55-3.71 1.349-4.313s1.065-.816.905-2.467a.373.373 0 0 1 .32-.39.354.354 0 0 1 .39.32c.195 2.04-.55 2.608-1.19 3.105-.638.497-1.348 1.03-1.064 3.656.532 4.845 3.958 4.525 4.1 4.508a.336.336 0 0 1 .39.301.354.354 0 0 1-.32.39zM44.346 28.42c.431 0 .78-.533.78-1.19s-.349-1.189-.78-1.189-.781.532-.781 1.19c0 .656.35 1.188.78 1.188M42.376 24.834a.46.46 0 0 1-.44-.512.44.44 0 0 1 .333-.375l3.922-1.03a.427.427 0 0 1 .532.302.443.443 0 0 1-.301.55L42.5 24.818zM48.782 33.851h-.017c-.781-.07-1.278-.337-1.456-.816-.39-1.012.941-2.45 1.225-2.715a.355.355 0 0 1 .497-.018.373.373 0 0 1 0 .515c-.515.532-1.225 1.544-1.047 1.97.177.425.55.337.816.354a.34.34 0 0 1 .337.373.37.37 0 0 1-.355.337"/><path fill="#f8f9fa" d="M69.99 47.658c10.184 0 18.44-8.256 18.44-18.44 0-10.183-8.256-18.439-18.44-18.439s-18.44 8.256-18.44 18.44c0 10.183 8.256 18.439 18.44 18.439"/><path fill="#212529" d="M69.99 48.03c-10.364 0-18.794-8.448-18.794-18.812a18.794 18.794 0 0 1 37.588 0c0 10.364-8.43 18.812-18.794 18.812m0-36.896a18.1 18.1 0 0 0-18.084 18.084c0 9.974 8.11 18.102 18.084 18.102s18.084-8.128 18.084-18.102A18.1 18.1 0 0 0 69.99 11.134"/><path fill="#f8f9fa" d="M69.99 44.481c8.243 0 14.926-6.682 14.926-14.925S78.232 14.631 69.99 14.631s-14.925 6.682-14.925 14.925 6.682 14.925 14.925 14.925"/><path fill="#212529" d="M69.99 44.836a15.28 15.28 0 1 1 15.28-15.28 15.3 15.3 0 0 1-15.28 15.28m0-29.85a14.57 14.57 0 1 0 14.57 14.57 14.59 14.59 0 0 0-14.57-14.57"/><path fill="#212529" d="M58.525 28.456c.872 0 1.58-1.08 1.58-2.413 0-1.334-.708-2.414-1.58-2.414s-1.58 1.08-1.58 2.413.708 2.414 1.58 2.414"/><path fill="#f8f9fa" d="M63.14 42.831s10.293-11.89 3.495-27.827z"/><path fill="#212529" d="M63.14 43.185a.355.355 0 0 1-.266-.586c.017-.035 2.555-2.999 4.24-7.861 1.545-4.455 2.663-11.483-.798-19.593a.355.355 0 0 1 .177-.461.355.355 0 0 1 .48.177c3.549 8.341 2.395 15.564.798 20.143-1.721 4.97-4.259 7.933-4.365 8.057a.38.38 0 0 1-.267.124"/><path fill="#f8f9fa" d="M26.829 101.875s.266 5.413 0 6.904z"/><path fill="#212529" d="M26.83 109.133h-.054a.371.371 0 0 1-.284-.426c.249-1.438 0-6.762-.017-6.815a.34.34 0 0 1 .337-.355.33.33 0 0 1 .261.085.34.34 0 0 1 .111.252c.018.213.267 5.449 0 6.957a.353.353 0 0 1-.355.302M47.522 40.453c-.692 0-1.26-.692-1.26-1.526s.568-1.544 1.26-1.544 1.26.692 1.26 1.544-.568 1.526-1.26 1.526m0-2.36c-.301 0-.55.39-.55.834s.248.816.55.816.55-.373.55-.816c0-.444-.248-.834-.55-.834M96.362 72.966a7 7 0 0 1-.852-.071c-1.544-.23-2.52-.657-2.91-1.26a.92.92 0 0 1-.142-.763l.674.195a.32.32 0 0 0 .089.23c.177.25.71.675 2.378.906l.745.053c3.142 0 5.591-2.857 6.194-4.472a2.17 2.17 0 0 0-.514-2.307.333.333 0 0 1-.018-.497.353.353 0 0 1 .497-.036c.053.054 1.384 1.278.692 3.088s-3.319 4.934-6.833 4.934"/><path fill="#212529" d="M101.42 75.662a.8.8 0 0 1-.408-.089.36.36 0 0 1-.18-.206.35.35 0 0 1 .229-.45.34.34 0 0 1 .271.035 1 1 0 0 0 .514-.088c.799-.338 1.722-1.172 1.81-1.438a.3.3 0 0 0-.053-.302l-2.129-3.105a.33.33 0 0 1-.008-.384.4.4 0 0 1 .096-.096.36.36 0 0 1 .267-.059.35.35 0 0 1 .23.148l2.13 3.088c.092.136.153.292.178.454s.012.33-.036.487c-.195.55-1.331 1.508-2.219 1.863a1.8 1.8 0 0 1-.692.142"/><path fill="#212529" d="M101.172 75.61a.37.37 0 0 1-.284-.142l-2.183-3.177a.358.358 0 0 1 .216-.552.36.36 0 0 1 .37.144l2.182 3.177q.04.06.053.13a.35.35 0 0 1-.159.367.36.36 0 0 1-.195.053"/><path fill="#f8f9fa" d="M70.097 117.421c4.273 0 7.737-3.425 7.737-7.649s-3.464-7.649-7.737-7.649c-4.274 0-7.738 3.425-7.738 7.649s3.464 7.649 7.738 7.649"/><path fill="#212529" d="M70.185 117.776h-.567l-3.266-.391 2.627-.319v-.089l.301.036a7.263 7.263 0 0 0 6.354-7.241c0-3.798-2.485-6.762-6.034-7.188l-2.91-.337 2.91-.355.142-.053q.205-.075.426-.071a8 8 0 0 1 5.989 2.674 8 8 0 0 1 1.98 6.253 8.04 8.04 0 0 1-7.952 7.081m2.574-14.819c2.2 1.366 3.585 3.851 3.585 6.815a8.04 8.04 0 0 1-4.047 6.992 7.5 7.5 0 0 0 2.432-1.295 7.2 7.2 0 0 0 2.697-4.863 7.24 7.24 0 0 0-1.81-5.697 7.5 7.5 0 0 0-2.857-1.952"/><path fill="#212529" d="M69.724 117.742h-.426c-4.029 0-7.294-3.585-7.294-7.969 0-4.383 3.212-8.003 7.17-8.003q.435 0 .87.053c3.584.497 6.3 3.904 6.3 7.95s-2.716 7.472-6.3 7.951zm-.55-15.263c-3.567 0-6.46 3.284-6.46 7.294 0 4.011 2.963 7.259 6.584 7.259h.266q.188.016.373-.018c3.248-.426 5.697-3.549 5.697-7.241s-2.45-6.797-5.697-7.24a5.4 5.4 0 0 0-.763-.054"/><path fill="#212529" d="M69.173 115.647c-2.91 0-5.27-2.627-5.27-5.874 0-3.248 2.36-5.857 5.27-5.857l.64.036c2.626.354 4.613 2.857 4.613 5.821s-1.987 5.466-4.614 5.821a4 4 0 0 1-.639.053m0-11.021c-2.52 0-4.56 2.307-4.56 5.147 0 2.839 2.04 5.164 4.56 5.164l.533-.036c2.289-.319 4.01-2.52 4.01-5.128s-1.721-4.81-4.01-5.112a2.7 2.7 0 0 0-.533-.035M76.592 106.171h-1.597a.357.357 0 0 1-.355-.355.354.354 0 0 1 .355-.355h1.597a.353.353 0 0 1 .355.355.356.356 0 0 1-.355.355M77.214 107.979h-1.509a.353.353 0 0 1-.355-.355.356.356 0 0 1 .355-.354h1.508a.356.356 0 0 1 .356.354.35.35 0 0 1-.356.355M77.817 110.429h-1.828a.357.357 0 0 1-.355-.355.354.354 0 0 1 .355-.355h1.828a.353.353 0 0 1 .355.355.356.356 0 0 1-.355.355M77.106 112.985h-1.615a.353.353 0 0 1-.355-.355.356.356 0 0 1 .355-.355h1.615a.357.357 0 0 1 .355.355.354.354 0 0 1-.355.355M75.491 115.612H73.93a.353.353 0 0 1-.355-.355.356.356 0 0 1 .355-.355h1.561a.36.36 0 0 1 .355.355.354.354 0 0 1-.355.355"/><path fill="#212529" d="M69.741 113.375a2.56 2.56 0 0 1-1.508-.461c-.852-.639-1.278-1.917-1.278-3.78.018-1.598.39-2.52 1.136-2.84 1.153-.497 2.627.834 2.786.976a.355.355 0 0 1 .018.497.33.33 0 0 1-.245.118.34.34 0 0 1-.252-.1c-.337-.302-1.402-1.1-2.023-.834s-.692.958-.71 2.183c0 1.632.32 2.715.994 3.194s1.721.302 2.413.089a.33.33 0 0 1 .273.017.34.34 0 0 1 .171.214.33.33 0 0 1-.017.273.343.343 0 0 1-.214.17 5 5 0 0 1-1.544.284"/><path fill="#f8f9fa" d="M41.435 97.278s-16.433 2.467-15.901 5.395c.533 2.928 1.686 4.845.124 8.075-.78 1.615-2.484 3.691-2.946 6.052-.461 2.36.55 5.146 2.822 7.027 4.561 3.78 4.437 6.726 25.61 0 0 0 7.524-1.916 4.294-8.163s-4.685-3.354-1.775-11.767c0 0 1.331-3.478-2.857-2.91 0 0-3.337.142-4.33-1.438-.994-1.58-1.704-3.975-5.04-2.271"/><path fill="#212529" d="M31.035 113.446s2.769-6.691 4.845-7.277c2.077-.585 14.908-4.277 15.724-3.354s-.355 7.046-2.076 7.401-13.523 4.046-12.707 4.969 13.044-2.307 14.198-1.615 4.223 4.508.851 8.536c-3.372 4.029-19.095 6.886-20.48 5.733-1.384-1.154-7.17-7.578-6.708-9.531.461-1.952-.586-4.135 1.508-3.176 2.095.958 3.603.994 4.845-1.686"/><path fill="#212529" d="M33.573 128.389c-2.165 0-4.206-.337-5.324-1.402-4.241-4.011-7.578-7.17-5.27-11.997 2.164-4.543 3.354-6.655 3.371-6.691a.4.4 0 0 1 .089-.105.337.337 0 0 1 .39-.019.355.355 0 0 1 .142.479c-.017.018-1.189 2.13-3.354 6.638s.94 7.223 5.13 11.18c1.419 1.349 5.27 1.58 10.54.604 7.295-1.331 15.157-4.543 16.15-6.62 1.35-2.751-.585-5.306-2.147-7.347a18 18 0 0 1-1.189-1.686c-.692-1.189-.035-3.336.604-5.431.568-1.81 1.206-3.886.497-4.383-1.385-.994-9.832.887-13.896 1.792l-2.077.444c-3.602.763-6.886 6.939-6.921 6.992a.35.35 0 0 1-.076.134.35.35 0 0 1-.277.118.36.36 0 0 1-.333-.277.36.36 0 0 1 .065-.294c.142-.266 3.46-6.531 7.4-7.365l2.059-.444c6.495-1.455 12.955-2.768 14.464-1.686 1.118.799.461 2.928-.231 5.182-.568 1.846-1.207 3.94-.657 4.863a15 15 0 0 0 1.136 1.615c1.58 2.076 3.745 4.934 2.219 8.075-1.243 2.573-9.78 5.768-16.665 7.028-1.58.284-3.762.603-5.839.603"/><path fill="#212529" d="M27.752 111.494a.39.39 0 0 1-.337-.213c-.337-.852-3.319-8.288-.958-9.903s14.304-4.17 15.103-3.85a.355.355 0 0 1 .212.46.41.41 0 0 1-.443.214c-.816-.089-12.352 2.289-14.464 3.762-1.42.976-.018 6.052 1.207 9.033a.34.34 0 0 1-.178.462zM37.956 96.942c-1.242 0-2.52-.302-3.283-1.296a.355.355 0 0 1 .071-.497.336.336 0 0 1 .497.071c1.526 1.988 6.034.426 6.07.408a.354.354 0 0 1 .445.486.37.37 0 0 1-.197.189c-.124.035-1.828.639-3.603.639"/><path fill="#212529" d="M35.703 103.029a.357.357 0 0 1-.319-.537.35.35 0 0 1 .194-.155c1.793-.657 6.088-2.148 6.993-1.669h.053c.284-.124.639-1.047.816-1.845a.355.355 0 0 1 .409-.267.373.373 0 0 1 .284.426c-.071.32-.462 1.988-1.207 2.325a.73.73 0 0 1-.692-.018c-.48-.212-3.71.728-6.425 1.722zM28.213 114.83a1.846 1.846 0 1 0 0-3.691 1.846 1.846 0 0 0 0 3.691M34.3 96a1.846 1.846 0 1 0 0-3.692 1.846 1.846 0 0 0 0 3.692"/><path fill="#212529" d="M43.777 99.125a1.846 1.846 0 1 0 0-3.691 1.846 1.846 0 0 0 0 3.691"/><path fill="#f8f9fa" d="m40.53 131.212-.373-.426a4 4 0 0 1-.621-1.438c-.409-1.97.62-4.348 2.768-5.892s5.13-1.863 6.85-.586c.3.226.563.495.781.799q.174.222.284.479c1.083 2.077.071 5.023-2.413 6.851s-5.626 1.863-7.276.213"/><path fill="#212529" d="M43.706 132.754c-1.33 0-2.555-.426-3.425-1.295a5 5 0 0 1-.408-.462 4.5 4.5 0 0 1-.639-1.348.425.425 0 0 1 .178-.462.43.43 0 0 1 .496-.018c1.651 1.083 4.224.817 6.265-.674s3.035-3.674 2.627-5.555l-.195-.905.763.55a4 4 0 0 1 1.171 1.402c1.171 2.254.071 5.395-2.538 7.294a7.4 7.4 0 0 1-4.295 1.473m-3.531-2.626c.089.142.177.302.284.444q.144.206.32.39c1.56 1.544 4.49 1.437 6.814-.249 2.325-1.703 3.319-4.454 2.325-6.406-.089-.142-.16-.284-.266-.444l-.054-.053c-.017 1.881-1.135 3.904-2.999 5.253-1.863 1.349-4.56 1.863-6.424 1.065"/><path fill="#212529" d="M42.287 130.555a4.86 4.86 0 0 1-2.964-.922l-.107-.089-.035-.124c-.444-2.148.728-4.668 2.91-6.265s5.378-1.97 7.277-.568l.106.089v.124c.462 2.147-.71 4.667-2.892 6.265-1.332.976-2.876 1.49-4.295 1.49m-2.432-1.419c1.65 1.135 4.224.887 6.318-.639 1.935-1.402 2.982-3.567 2.662-5.413-1.65-1.136-4.224-.87-6.335.656-2.112 1.527-2.964 3.55-2.645 5.396"/><path fill="#212529" d="M49.297 128.23a.354.354 0 0 1-.32-.213l-.745-1.561a.363.363 0 0 1 .178-.48.363.363 0 0 1 .479.178l.727 1.562a.37.37 0 0 1-.177.479zM47.54 129.739a.36.36 0 0 1-.301-.196l-.586-1.047a.35.35 0 0 1-.036-.279.36.36 0 0 1 .178-.218.375.375 0 0 1 .48.142l.585 1.065a.355.355 0 0 1-.142.479.3.3 0 0 1-.178.054M44.434 131.619a.34.34 0 0 1-.32-.196l-.656-1.26a.356.356 0 0 1 .433-.498c.09.03.164.094.206.179l.639 1.26a.355.355 0 0 1-.142.479zM41.577 129.064c-.284 0-.78-.124-.958-.55s.302-1.704 1.846-3.23 2.84-2.254 3.869-2.165a1.44 1.44 0 0 1 1.029.496.374.374 0 0 1-.089.497.35.35 0 0 1-.253.059.35.35 0 0 1-.226-.13.79.79 0 0 0-.55-.213c-.462-.035-1.49.196-3.283 1.953s-1.722 2.395-1.686 2.449c.035.053.248.124.301.124h.018a.37.37 0 0 1 .355.337.39.39 0 0 1-.355.373z"/><path fill="#f8f9fa" d="M97.977 130.058a6 6 0 0 0-.035-.799 4.9 4.9 0 0 0-.71-2.112c-1.438-2.449-4.81-3.958-8.537-3.549-4.028.426-7.17 2.963-7.755 5.945a5.2 5.2 0 0 0-.053 1.579q.03.399.142.781c.87 3.213 4.738 5.36 9.104 4.881s7.684-3.39 7.844-6.726"/><path fill="#212529" d="M88.926 137.209c-3.975 0-7.4-2.112-8.235-5.218a6 6 0 0 1-.16-.834 5.4 5.4 0 0 1 .036-1.509.41.41 0 0 1 .337-.337.405.405 0 0 1 .426.178c1.455 2.325 4.703 3.638 8.128 3.265 3.745-.408 6.797-2.697 7.419-5.572a.39.39 0 0 1 .319-.32.43.43 0 0 1 .408.195 5.5 5.5 0 0 1 .692 2.165q.044.425.036.852c-.178 3.55-3.674 6.567-8.164 7.064-.408.035-.834.071-1.242.071m-7.72-6.673c0 .177 0 .355.018.532s.088.515.142.746c.834 3.088 4.578 5.075 8.731 4.614 4.135-.444 7.365-3.195 7.525-6.389a5.5 5.5 0 0 0-.035-.746 4.4 4.4 0 0 0-.267-1.153c-1.03 2.786-4.1 4.916-7.79 5.306-3.337.373-6.585-.781-8.324-2.91"/><path fill="#212529" d="M88.306 133.518c-3.301 0-6.283-1.437-7.667-3.798l-.071-.106.035-.142c.622-3.212 3.94-5.786 8.058-6.229 3.762-.409 7.33 1.082 8.89 3.726l.054.107v.142c-.621 3.23-3.94 5.785-8.057 6.229a9 9 0 0 1-1.242.071m-6.975-4.028c1.438 2.324 4.685 3.638 8.128 3.265 3.745-.408 6.78-2.68 7.4-5.537-1.437-2.343-4.684-3.638-8.127-3.266-3.745.409-6.78 2.662-7.401 5.538"/><path fill="#212529" d="M85.217 136.216a.353.353 0 0 1-.355-.302l-.355-3.283a.34.34 0 0 1 .17-.351.362.362 0 0 1 .393.039.35.35 0 0 1 .129.241l.373 3.265a.356.356 0 0 1-.32.391zM88.855 136.855a.357.357 0 0 1-.355-.32l-.408-3.318a.39.39 0 0 1 .32-.408.34.34 0 0 1 .138.013.34.34 0 0 1 .212.173.4.4 0 0 1 .04.133l.408 3.336a.356.356 0 0 1-.32.391zM94.108 135.896a.35.35 0 0 1-.355-.284l-.692-3.638a.375.375 0 0 1 .284-.426.355.355 0 0 1 .408.284l.71 3.656a.354.354 0 0 1-.284.408zM84.045 128.903a.35.35 0 0 1-.355-.319c-.017-.071-.07-.71.55-1.367.977-1.047 3-1.526 6.035-1.384 3.034.142 4.56.621 4.88 1.526.213.568-.195 1.118-.461 1.349a.354.354 0 0 1-.553-.298c0-.087.033-.17.091-.234 0 0 .355-.32.249-.586-.107-.266-.586-.905-4.242-1.047s-4.88.532-5.448 1.136-.39.816-.39.834a.37.37 0 0 1-.32.39zM52.793 69.7c-1.544 0-2.396-1.029-2.786-1.739-.426.497-1.295 1.1-2.946.923-2.307-.266-2.804-2.325-2.893-3.354-.656.266-1.97.71-3.07-.177-.834-.675-1.136-1.704-.834-2.858-.923.107-2.556-.106-3.55-1.189s-1.047-2.112-.674-3.691c-.887.177-1.899.195-2.325-.373s-.213-1.047.284-1.845l.603.372c-.46.746-.354.994-.319 1.047.036.053.799.302 1.917.036a.53.53 0 0 1 .479.142.57.57 0 0 1 .124.497c-.408 1.473-.248 2.59.426 3.336.675.745 2.45 1.065 3.07.958a.57.57 0 0 1 .568.178.62.62 0 0 1 .125.586c-.196.656-.267 1.579.55 2.253.816.675 1.863.302 2.573-.035l.071-.036a.45.45 0 0 1 .444.036.52.52 0 0 1 .23.39c.018.64.231 2.787 2.272 3.017 1.597.178 2.254-.479 2.502-.887a.46.46 0 0 1 .444-.23.43.43 0 0 1 .39.266c.249.532.959 1.757 2.485 1.668s1.846-.959 1.988-1.491a.44.44 0 0 1 .337-.337.53.53 0 0 1 .479.142c.515.585 1.899 1.845 3.567.87 1.668-.977 1.278-1.81.923-2.503a.51.51 0 0 1 .071-.55.5.5 0 0 1 .532-.107c.817.32 2.698.621 3.213.018.514-.603-.178-2.165-.444-2.59a.57.57 0 0 1-.035-.48.53.53 0 0 1 .372-.302c.515-.106 2.2-.55 2.787-1.739.319-.674.248-1.508-.213-2.467a.567.567 0 0 1 .315-.794.6.6 0 0 1 .323-.022c.675.124 2.29.337 2.467-.586l.692.142c-.213 1.047-1.313 1.473-3.052 1.171.461 1.083.497 2.041.106 2.858-.638 1.295-2.183 1.863-3.017 2.076.426.781 1.065 2.254.249 3.195s-2.591.603-3.55.337c.231.745.267 2.005-1.384 2.964-1.65.958-3.46-.036-4.188-.728-.266.639-.923 1.544-2.502 1.633z"/><path fill="#f8f9fa" d="M29.083 50.959a5.4 5.4 0 0 1-2.396-.621l-.07-.036a.37.37 0 0 1-.25-.355.355.355 0 0 1 .356-.355.6.6 0 0 1 .301.107c2.307 1.189 4.437.426 6.159-2.219a.354.354 0 0 1 .592-.01.34.34 0 0 1-.007.383c-1.313 2.059-2.928 3.106-4.685 3.106"/><path fill="#212529" d="M87.33 93.658h-.054a.37.37 0 0 1-.302-.409c.053-.248 3.745-25.946-1.828-33.027-.035-.035-2.84-3.62-4.295-4.667-1.029-.746-.993-2.2-.39-3.124s1.508-1.136 2.414-.603a.337.337 0 0 1 .124.479.354.354 0 0 1-.48.124c-.798-.461-1.295.107-1.472.373-.426.674-.444 1.704.213 2.165 1.544 1.118 4.33 4.668 4.436 4.81 5.768 7.33 2.148 32.512 1.988 33.577a.355.355 0 0 1-.355.302"/></svg>