<svg width="105" height="24" viewBox="0 0 105 24" fill="none" xmlns="http://www.w3.org/2000/svg">
<path fill-rule="evenodd" clip-rule="evenodd" d="M18.4375 7.58594H9.38617C7.19711 7.58594 5.82422 9.13611 5.82422 11.3306V17.2513C5.82422 19.4458 7.18954 20.9959 9.38617 20.9959H18.4364C20.6341 20.9959 22.0005 19.4458 22.0005 17.2513V11.3306C22.0005 9.13611 20.6341 7.58594 18.4375 7.58594Z" stroke="#ADB5BD" stroke-width="1.5" stroke-linecap="round" stroke-linejoin="round"/>
<path d="M9.37207 12.0488H18.4472" stroke="#f00" stroke-width="1.5" stroke-linecap="round" stroke-linejoin="round"/>
<path d="M18.0854 7.58365L16.4996 4.94056C15.3634 3.06933 13.3981 2.43801 11.5118 3.57524L3.76308 8.23874C1.88427 9.36733 1.50592 11.4029 2.6345 13.2893L5.69593 18.3549C5.83863 18.6003 5.99646 18.8208 6.17699 19.0186V19.0262" stroke="#ADB5BD" stroke-width="1.5" stroke-linecap="round" stroke-linejoin="round"/>
<path d="M33.9618 8.95513H39.1542V18.5H37.4934V10.5587H33.9618V18.5H32.301V10.5587H30.7738V8.95513H32.301V8.66878C32.301 6.14893 33.6946 4.88901 36.4817 4.88901C37.0416 4.88901 37.697 4.97173 38.4479 5.13718V6.64527C37.608 6.54345 36.9525 6.49255 36.4817 6.49255C35.6035 6.49255 34.9608 6.65799 34.5536 6.98888C34.1591 7.31977 33.9618 7.87974 33.9618 8.66878V8.95513ZM46.4517 8.70696C47.5717 8.70696 48.4689 9.0633 49.1434 9.77598C49.8179 10.4759 50.1551 11.4304 50.1551 12.6394V18.5H48.4943V12.7349C48.4943 11.9713 48.2843 11.3732 47.8644 10.9405C47.4444 10.5078 46.8653 10.2914 46.1272 10.2914C45.2745 10.2914 44.6 10.5587 44.1037 11.0932C43.6074 11.615 43.3592 12.3976 43.3592 13.4412V18.5H41.6984V8.95513H43.3592V10.3296C44.021 9.24783 45.0518 8.70696 46.4517 8.70696ZM56.9597 18.7482C55.5217 18.7482 54.3254 18.2709 53.3709 17.3164C52.4164 16.3492 51.9391 15.1529 51.9391 13.7276C51.9391 12.3022 52.4164 11.1123 53.3709 10.1578C54.3254 9.19057 55.5217 8.70696 56.9597 8.70696C57.9015 8.70696 58.7478 8.93604 59.4987 9.39419C60.2495 9.83962 60.8095 10.4441 61.1786 11.2077L59.785 12.0095C59.5432 11.5004 59.1678 11.0932 58.6587 10.7877C58.1624 10.4823 57.5961 10.3296 56.9597 10.3296C56.0053 10.3296 55.2035 10.6541 54.5544 11.3032C53.9181 11.9649 53.5999 12.7731 53.5999 13.7276C53.5999 14.6693 53.9181 15.4711 54.5544 16.1329C55.2035 16.7819 56.0053 17.1064 56.9597 17.1064C57.5961 17.1064 58.1688 16.9601 58.6778 16.6674C59.1869 16.3619 59.575 15.9547 59.8423 15.4456L61.2549 16.2665C60.835 17.0301 60.2432 17.6346 59.4796 18.08C58.716 18.5255 57.8761 18.7482 56.9597 18.7482ZM67.6481 8.70696C68.768 8.70696 69.6652 9.0633 70.3397 9.77598C71.0142 10.4759 71.3515 11.4304 71.3515 12.6394V18.5H69.6907V12.7349C69.6907 11.9713 69.4807 11.3732 69.0607 10.9405C68.6407 10.5078 68.0617 10.2914 67.3235 10.2914C66.4709 10.2914 65.7964 10.5587 65.3 11.0932C64.8037 11.615 64.5555 12.3976 64.5555 13.4412V18.5H62.8947V5.13718H64.5555V10.3296C65.2173 9.24783 66.2481 8.70696 67.6481 8.70696ZM82.8331 14.4912H74.8345C74.9999 15.3311 75.3881 15.9929 75.9989 16.4765C76.6098 16.9474 77.3734 17.1828 78.2897 17.1828C79.5496 17.1828 80.4659 16.7183 81.0386 15.7893L82.4513 16.591C81.5095 18.0291 80.1096 18.7482 78.2515 18.7482C76.7498 18.7482 75.5153 18.2773 74.5481 17.3355C73.6064 16.3683 73.1355 15.1657 73.1355 13.7276C73.1355 12.2767 73.6 11.0805 74.529 10.1387C75.4581 9.1842 76.6607 8.70696 78.137 8.70696C79.5369 8.70696 80.6759 9.20329 81.5541 10.196C82.4449 11.1632 82.8903 12.3467 82.8903 13.7467C82.8903 13.9885 82.8712 14.2366 82.8331 14.4912ZM78.137 10.2723C77.2589 10.2723 76.5207 10.5205 75.9226 11.0168C75.3372 11.5132 74.9745 12.1877 74.8345 13.0403H81.2104C81.0704 12.1622 80.7205 11.4813 80.1605 10.9977C79.6005 10.5141 78.926 10.2723 78.137 10.2723ZM89.2669 18.7482C87.8288 18.7482 86.6325 18.2709 85.678 17.3164C84.7235 16.3492 84.2463 15.1529 84.2463 13.7276C84.2463 12.3022 84.7235 11.1123 85.678 10.1578C86.6325 9.19057 87.8288 8.70696 89.2669 8.70696C90.2087 8.70696 91.055 8.93604 91.8058 9.39419C92.5567 9.83962 93.1167 10.4441 93.4857 11.2077L92.0922 12.0095C91.8504 11.5004 91.475 11.0932 90.9659 10.7877C90.4696 10.4823 89.9032 10.3296 89.2669 10.3296C88.3124 10.3296 87.5106 10.6541 86.8616 11.3032C86.2253 11.9649 85.9071 12.7731 85.9071 13.7276C85.9071 14.6693 86.2253 15.4711 86.8616 16.1329C87.5106 16.7819 88.3124 17.1064 89.2669 17.1064C89.9032 17.1064 90.4759 16.9601 90.985 16.6674C91.494 16.3619 91.8822 15.9547 92.1495 15.4456L93.5621 16.2665C93.1421 17.0301 92.5503 17.6346 91.7868 18.08C91.0232 18.5255 90.1832 18.7482 89.2669 18.7482ZM98.5617 13.5748L103.277 18.5H101.215L96.8627 13.9757V18.5H95.2019V5.13718H96.8627V13.174L100.986 8.95513H103.124L98.5617 13.5748Z" fill="#ADB5BD"/>
</svg>
